<svg xmlns="http://www.w3.org/2000/svg" xmlns:xlink="http://www.w3.org/1999/xlink" width="500"
    zoomAndPan="magnify" viewBox="0 0 375 374.999991" height="500"
    preserveAspectRatio="xMidYMid meet" version="1.0">
    <defs>
        <g />
    </defs>

    <g fill="#161616" fill-opacity="1">
        <g transform="translate(39.051048, 251.278835)">
            <g>
                <path
                    d="M 20.34375 0 L 20.34375 -199.578125 L 69.84375 -199.578125 L 69.84375 -160.421875 C 70.875 -163.242188 72.988281 -167.019531 76.1875 -171.75 C 79.382812 -176.476562 83.664062 -181.273438 89.03125 -186.140625 C 94.40625 -191.003906 100.992188 -195.097656 108.796875 -198.421875 C 116.609375 -201.742188 125.628906 -203.40625 135.859375 -203.40625 C 148.140625 -203.40625 159.972656 -200.398438 171.359375 -194.390625 C 182.742188 -188.378906 192.082031 -178.910156 199.375 -165.984375 C 206.675781 -153.066406 210.328125 -136.117188 210.328125 -115.140625 L 210.328125 0 L 160.8125 0 L 160.8125 -112.0625 C 160.8125 -129.46875 156.460938 -141.816406 147.765625 -149.109375 C 139.066406 -156.398438 129.085938 -160.046875 117.828125 -160.046875 C 107.847656 -160.046875 99.273438 -157.484375 92.109375 -152.359375 C 84.941406 -147.242188 79.503906 -141.425781 75.796875 -134.90625 C 72.085938 -128.382812 70.101562 -122.691406 69.84375 -117.828125 L 69.84375 0 Z M 20.34375 0 " />
            </g>
        </g>
    </g>
    <g fill="#161616" fill-opacity="1">
        <g transform="translate(341.815266, 116.656366)">
            <g>
                <path
                    d="M -20.34375 0 L -20.34375 199.578125 L -69.84375 199.578125 L -69.84375 160.421875 C -70.875 163.242188 -72.988281 167.019531 -76.1875 171.75 C -79.382812 176.476562 -83.664062 181.273438 -89.03125 186.140625 C -94.40625 191.003906 -100.992188 195.097656 -108.796875 198.421875 C -116.609375 201.742188 -125.628906 203.40625 -135.859375 203.40625 C -148.140625 203.40625 -159.972656 200.398438 -171.359375 194.390625 C -182.742188 188.378906 -192.082031 178.910156 -199.375 165.984375 C -206.675781 153.066406 -210.328125 136.117188 -210.328125 115.140625 L -210.328125 0 L -160.8125 0 L -160.8125 112.0625 C -160.8125 129.46875 -156.460938 141.816406 -147.765625 149.109375 C -139.066406 156.398438 -129.085938 160.046875 -117.828125 160.046875 C -107.847656 160.046875 -99.273438 157.484375 -92.109375 152.359375 C -84.941406 147.242188 -79.503906 141.425781 -75.796875 134.90625 C -72.085938 128.382812 -70.101562 122.691406 -69.84375 117.828125 L -69.84375 0 Z M -20.34375 0 " />
            </g>
        </g>
    </g>
</svg>